<svg xmlns="http://www.w3.org/2000/svg" width="167.437" height="158.178" viewBox="0 0 167.437 158.178">
  <g id="Grupo_303" data-name="Grupo 303" transform="translate(-798.84)">
    <g id="Grupo_300" data-name="Grupo 300" transform="translate(798.84)">
      <path id="Trazado_606" data-name="Trazado 606" d="M1079.246,0a10.692,10.692,0,1,1-10.653,10.692A10.692,10.692,0,0,1,1079.246,0Z" transform="translate(-994.646)" fill="#124691" fill-rule="evenodd"/>
      <path id="Trazado_607" data-name="Trazado 607" d="M798.84,27.848h71.221a13.877,13.877,0,0,0-.157,5.407H798.84V27.848Zm98.037,0h69.4v5.407H897.034a13.843,13.843,0,0,0-.157-5.407Z" transform="translate(-798.84 -20.214)" fill="#124691" fill-rule="evenodd"/>
    </g>
    <g id="Grupo_301" data-name="Grupo 301" transform="translate(801.451 21.989)">
      <path id="Trazado_608" data-name="Trazado 608" d="M823.03,105.883h6a3.053,3.053,0,0,0,1.232-.194.584.584,0,0,0,.416-.536,3.4,3.4,0,0,0-.121-.637c-.087-.314-.2-.656-.33-1.016l-3.714-9.383a3.039,3.039,0,0,0-.382-.757c-.139-.184-.26-.277-.382-.277a.59.59,0,0,0-.434.222,1.831,1.831,0,0,0-.356.591l-3.913,9.77a6.014,6.014,0,0,0-.252.794,2.65,2.65,0,0,0-.1.582.655.655,0,0,0,.46.665,6.211,6.211,0,0,0,1.874.175Zm-9.25,8.745L826.9,83.212v-.028c.2-.489.469-.729.807-.729a.774.774,0,0,1,.547.268,2.194,2.194,0,0,1,.451.7L842,116.466a7.971,7.971,0,0,0,1.336,2.364,4.475,4.475,0,0,0,1.762,1.182c.139.046.338.111.616.185a.574.574,0,0,0,.121.027l.026.028q1.172.374,1.171,1.3a1.451,1.451,0,0,1-.165.85c-.113.138-.373.2-.772.2-.278,0-1.232-.083-2.863-.24a44.36,44.36,0,0,0-4.46-.249,39,39,0,0,0-5.874.462c-.408.055-.651.083-.738.083a.741.741,0,0,1-.6-.323,1.422,1.422,0,0,1-.243-.84q0-.54,1.171-1.163l.156-.083a4.308,4.308,0,0,0,1.909-1.283,3,3,0,0,0,.5-1.773,6.066,6.066,0,0,0-.13-1.21,6.232,6.232,0,0,0-.373-1.228l-1.475-3.731a4.439,4.439,0,0,0-1.162-1.921,4.341,4.341,0,0,0-2.421-.462h-7.349a5.575,5.575,0,0,0-2.9.489,3.835,3.835,0,0,0-1.145,1.893l-1.423,4.22a9.761,9.761,0,0,0-.3,1.053,3.856,3.856,0,0,0-.1.84,2.521,2.521,0,0,0,.876,1.986,5.885,5.885,0,0,0,2.707,1.154.159.159,0,0,0,.078.037.756.756,0,0,0,.182.018,4.44,4.44,0,0,1,1.492.5.857.857,0,0,1,.33.72,1.118,1.118,0,0,1-.3.877,1.221,1.221,0,0,1-.885.286c-.173,0-1.006-.092-2.516-.277a36.572,36.572,0,0,0-4.2-.268,19.234,19.234,0,0,0-2.994.24c-1.006.166-1.51.249-1.527.249a1.145,1.145,0,0,1-.85-.286,1.068,1.068,0,0,1-.3-.822q0-.762,1.146-1.246a5.285,5.285,0,0,0,1.041-.517,5.86,5.86,0,0,0,1.51-1.635A24.564,24.564,0,0,0,813.781,114.628Z" transform="translate(-808.366 -81.84)" fill="#124691" fill-rule="evenodd"/>
      <path id="Trazado_609" data-name="Trazado 609" d="M958.627,91.376a18.859,18.859,0,0,0-.276-3.966,4.45,4.45,0,0,0-.941-1.884,4.021,4.021,0,0,0-2.255-1.164.208.208,0,0,1-.114-.029h-.049c-.949-.189-1.428-.606-1.428-1.249a1.055,1.055,0,0,1,.325-.843,1.284,1.284,0,0,1,.909-.293c.13,0,.438.029.933.085a48.344,48.344,0,0,0,5.4.331c.836,0,2.255-.085,4.251-.265s3.562-.265,4.706-.265q5.465,0,8.422,2.773c1.972,1.846,2.961,4.486,2.961,7.9a9.677,9.677,0,0,1-1.558,5.651,9.935,9.935,0,0,1-4.762,3.5,2.69,2.69,0,0,1,.811.757,8.91,8.91,0,0,1,.884,1.628l4.909,10.619a12.22,12.22,0,0,0,1.817,3.01,2.323,2.323,0,0,0,1.7.738,5.641,5.641,0,0,0,.714-.057c.284-.038.463-.057.544-.057a.691.691,0,0,1,.519.18.914.914,0,0,1,.171.625c0,.7-.544,1.372-1.631,2a6.961,6.961,0,0,1-3.546.937,5.257,5.257,0,0,1-4.04-2.224,33.635,33.635,0,0,1-4.235-7.922c-.057-.142-.146-.369-.26-.663q-2.592-6.332-3.375-7.127a2.989,2.989,0,0,0-1.185-.757,8.931,8.931,0,0,0-2.377-.218,2.355,2.355,0,0,0-1.631.417,2.257,2.257,0,0,0-.414,1.581v8.348a10.521,10.521,0,0,0,.519,3.653,3.912,3.912,0,0,0,1.647,2.035,5.2,5.2,0,0,0,1.071.416.5.5,0,0,0,.114.029.067.067,0,0,1,.049.028c.917.255,1.379.7,1.379,1.325a1.448,1.448,0,0,1-.26.975,1.247,1.247,0,0,1-.909.274c-.138,0-.86-.085-2.158-.255a30.242,30.242,0,0,0-3.691-.246,39.564,39.564,0,0,0-4.162.246c-1.5.17-2.345.255-2.515.255a1.278,1.278,0,0,1-.86-.265.906.906,0,0,1-.308-.729,1.526,1.526,0,0,1,.236-.89,3.356,3.356,0,0,1,1.1-.776c.081-.057.227-.142.43-.265s.365-.218.479-.293a4.2,4.2,0,0,0,1.485-2.044,10.02,10.02,0,0,0,.462-3.3V91.376Zm6,6.54c0,1.24.227,2,.673,2.29a6.911,6.911,0,0,0,3.075.426q3.907,0,5.525-1.562t1.631-5.205a10.835,10.835,0,0,0-2.117-7.07,7.124,7.124,0,0,0-5.817-2.574,2.7,2.7,0,0,0-2.32.9,6.943,6.943,0,0,0-.649,3.654Z" transform="translate(-913.761 -81.391)" fill="#124691" fill-rule="evenodd"/>
      <path id="Trazado_610" data-name="Trazado 610" d="M1081.955,91.376a17.114,17.114,0,0,0-.332-4.231,3.71,3.71,0,0,0-1.194-1.789,6.809,6.809,0,0,0-2.658-.994.487.487,0,0,1-.162-.029,3.155,3.155,0,0,1-1.454-.388,1.017,1.017,0,0,1-.359-.861,1.087,1.087,0,0,1,.359-.871,1.388,1.388,0,0,1,.979-.322,6.222,6.222,0,0,1,.718.085,33.03,33.03,0,0,0,4.525.331,85.182,85.182,0,0,0,8.835-.416c.305-.038.476-.057.53-.057a1.207,1.207,0,0,1,.844.274,1.089,1.089,0,0,1,.287.8c0,.558-.449.975-1.356,1.249a4.49,4.49,0,0,0-1.876.975,4.16,4.16,0,0,0-.952,1.969,18.345,18.345,0,0,0-.287,3.72v22.649a8.909,8.909,0,0,0,.682,3.833,3.612,3.612,0,0,0,2.083,1.912c.3.095.772.2,1.419.331a1.118,1.118,0,0,0,.233.057,4.3,4.3,0,0,1,1.634.511,1.023,1.023,0,0,1,.368.842,1.177,1.177,0,0,1-.368.946,1.766,1.766,0,0,1-1.131.3c-.4,0-1.437-.085-3.106-.255s-3.133-.246-4.391-.246c-1.284,0-2.729.085-4.345.246s-2.568.255-2.865.255a1.543,1.543,0,0,1-.96-.274.867.867,0,0,1-.359-.719,1.322,1.322,0,0,1,.278-.89,3.806,3.806,0,0,1,1.3-.776c.162-.095.368-.208.646-.35s.449-.227.539-.255a3.409,3.409,0,0,0,1.41-1.893,10.244,10.244,0,0,0,.485-3.407Z" transform="translate(-1002.486 -81.391)" fill="#124691" fill-rule="evenodd"/>
      <path id="Trazado_611" data-name="Trazado 611" d="M1160.259,91.517a14.294,14.294,0,0,0-.369-3.928,4.278,4.278,0,0,0-1.328-1.912,4.638,4.638,0,0,0-1.349-.748,9.9,9.9,0,0,0-2.15-.445h-.053c-1.3-.208-1.95-.615-1.95-1.249a1.026,1.026,0,0,1,.432-.871,1.941,1.941,0,0,1,1.2-.322c.084,0,.369.019.864.057q4.853.412,10.076.416,5.407,0,11.362-.208c3.974-.142,6.166-.208,6.556-.208a3.792,3.792,0,0,1,2.139.36,2.314,2.314,0,0,1,.39,1.637V85.29q0,2.016.064,4.231v.587a1.486,1.486,0,0,1-.2.928,1.164,1.164,0,0,1-.822.208c-.685,0-1.064-.436-1.159-1.316a5.707,5.707,0,0,0-.485-1.978,5.31,5.31,0,0,0-3.33-2.5,26.743,26.743,0,0,0-7.23-.719,7.894,7.894,0,0,0-3.994.719A2.8,2.8,0,0,0,1167.795,88v8.887a2.313,2.313,0,0,0,.632,1.827,3.15,3.15,0,0,0,2.087.558h2.034a10.644,10.644,0,0,0,3.415-.445,4.956,4.956,0,0,0,2.139-1.5,8.518,8.518,0,0,0,.959-1.609c.538-1.088,1.117-1.637,1.76-1.637a1,1,0,0,1,.769.274,1.356,1.356,0,0,1,.253.918,5.134,5.134,0,0,1-.063.53,37.712,37.712,0,0,0-.19,3.8,53.954,53.954,0,0,0,.4,6.37c.064.539.1.871.1,1a1.086,1.086,0,0,1-.274.814,1.122,1.122,0,0,1-.812.265c-.674,0-1.1-.5-1.265-1.5a9.266,9.266,0,0,0-.432-1.723,4.291,4.291,0,0,0-2.066-2.309,10.6,10.6,0,0,0-4.321-.653h-2.466a2.831,2.831,0,0,0-2.1.6,4.085,4.085,0,0,0-.559,2.594v8.849c0,2.338.327,3.8.991,4.373s2.013.861,4.078.861a22.12,22.12,0,0,0,6.219-.9,15.368,15.368,0,0,0,5.017-2.395,10.257,10.257,0,0,0,2.382-2.527c.675-1.013,1.212-1.524,1.6-1.524a.79.79,0,0,1,.654.322,1.319,1.319,0,0,1,.242.814,9,9,0,0,1-.707,2.991,12.11,12.11,0,0,1-1.76,3.218,7.593,7.593,0,0,1-3.32,2.442,14.066,14.066,0,0,1-5.028.776q-1.3,0-5.249-.255t-6.577-.246q-3.21,0-6.566.246c-2.235.17-3.383.255-3.436.255a1.988,1.988,0,0,1-1.117-.265.826.826,0,0,1-.4-.729,1.277,1.277,0,0,1,.306-.89,4.5,4.5,0,0,1,1.423-.776c.105-.057.3-.142.559-.265s.474-.218.622-.293a4.46,4.46,0,0,0,1.929-2.044,7.938,7.938,0,0,0,.6-3.3Z" transform="translate(-1058.569 -81.541)" fill="#124691" fill-rule="evenodd"/>
      <path id="Trazado_612" data-name="Trazado 612" d="M1294.376,117.466l-2.119-8.187c-.055-.218-.12-.436-.174-.634a2.192,2.192,0,0,1-.077-.36,1.08,1.08,0,0,1,1.311-1.335q.737,0,1.507,1.874a21.427,21.427,0,0,0,1.759,3.426,15.648,15.648,0,0,0,5,4.922,11.614,11.614,0,0,0,6.073,1.789,9.841,9.841,0,0,0,6.466-2.082,6.7,6.7,0,0,0,2.523-5.433q0-4.216-9.733-7.855c-.448-.161-.786-.294-1.027-.388a.062.062,0,0,1-.055-.028q-12.894-4.77-12.9-12.115a9.78,9.78,0,0,1,3.659-7.713,13.718,13.718,0,0,1,9.241-3.133,19.47,19.47,0,0,1,5.921.975,18.521,18.521,0,0,0,3.9.965,4.19,4.19,0,0,0,1.747-.369,3.843,3.843,0,0,1,1.005-.379,1.291,1.291,0,0,1,.917.275,1.42,1.42,0,0,1,.273.975c0,.2-.022.521-.066.956s-.066.776-.066,1.041a23.213,23.213,0,0,0,.459,3.89,22.278,22.278,0,0,1,.47,3.426,1.441,1.441,0,0,1-.229.946,1,1,0,0,1-.765.246c-.655,0-1.191-.615-1.595-1.846a14.31,14.31,0,0,0-1.737-3.5,11.948,11.948,0,0,0-4.555-3.8,13.475,13.475,0,0,0-6.008-1.41,8.245,8.245,0,0,0-5.21,1.59,4.882,4.882,0,0,0-2.053,3.985,4.959,4.959,0,0,0,1.955,3.947c1.3,1.088,3.714,2.205,7.231,3.369.382.133.983.322,1.791.587q6.439,2.13,8.487,3.852a10.735,10.735,0,0,1,2.927,3.852,12.067,12.067,0,0,1,1.005,4.94,11.857,11.857,0,0,1-3.987,9.294,15.025,15.025,0,0,1-10.388,3.549,22.394,22.394,0,0,1-5.964-.937c-2.228-.634-3.6-.984-4.118-1.06a2.1,2.1,0,0,0-.328-.047c-.142-.019-.251-.038-.338-.057a2.165,2.165,0,0,1-2.076-1.808c-.022-.038-.044-.066-.055-.085S1294.376,117.523,1294.376,117.466Z" transform="translate(-1159.426 -80.213)" fill="#124691" fill-rule="evenodd"/>
    </g>
    <g id="Grupo_302" data-name="Grupo 302" transform="translate(799.282 148.067)">
      <path id="Trazado_613" data-name="Trazado 613" d="M800.5,542.561c0-.909-.015-1.466-.045-1.723.256-.041,1.3-.109,1.628-.109.256,0,.3.122.3.732v6.093c0,.95.03,1.4.045,1.669a11.837,11.837,0,0,1-1.613.108c-.226,0-.316-.041-.316-.271Z" transform="translate(-800.451 -540.566)" fill="#124691"/>
      <path id="Trazado_614" data-name="Trazado 614" d="M812.824,540.905v-.068c.286-.041,1.6-.109,1.87-.109a.6.6,0,0,1,.407.244c.5.624,1.734,2.32,2.819,3.827.663.963,1.221,1.709,1.6,2.4a18.232,18.232,0,0,1-.09-2.253v-3.786c0-.312.105-.366.332-.38.422-.041.9-.054,1.221-.054-.03.583-.045,1.371-.045,2.5v5.97a7.115,7.115,0,0,1-1.448.217.4.4,0,0,1-.377-.176c-.769-.991-1.553-2.049-2.728-3.7a31.356,31.356,0,0,1-1.854-2.931c.075,1.371.075,2.063.075,2.755v3.555c0,.285-.09.326-.347.366a7.575,7.575,0,0,1-1.206.054c.03-.542.045-1.329.045-2.469v-5.618Z" transform="translate(-809.432 -540.566)" fill="#124691"/>
      <path id="Trazado_615" data-name="Trazado 615" d="M853.292,546.038c0-.57-.045-.882-.06-1.208a14.963,14.963,0,0,1,1.628-.2c.226,0,.317.081.317.366v3.053a5.283,5.283,0,0,1-1.191.679,8.277,8.277,0,0,1-2.08.3c-2.518,0-5.2-1-5.2-4.383,0-2.795,2.4-4.5,5.336-4.5a5.344,5.344,0,0,1,3.136.787.8.8,0,0,1-.9.855,5.961,5.961,0,0,0-2.261-.448,3.035,3.035,0,0,0-3.3,3.2,3.306,3.306,0,0,0,3.527,3.433,3.257,3.257,0,0,0,1.055-.163Z" transform="translate(-834.025 -540.135)" fill="#124691"/>
      <path id="Trazado_616" data-name="Trazado 616" d="M882.5,542.777c0-.638,0-1.14-.045-1.71a9.361,9.361,0,0,1,1.7-.19h3.663a1.61,1.61,0,0,1-.452,1.045,5.935,5.935,0,0,1-1.417.081h-1.568v2.416h3.286c-.136.95-.467,1.126-.995,1.126h-2.292v2.673a7.831,7.831,0,0,0,1.4.1c.618,0,1.719-.014,2.442-.068l.03.027a1.485,1.485,0,0,1-.8,1.1,17.122,17.122,0,0,1-2.05.068,19.177,19.177,0,0,1-2.683-.136l-.226-.271Z" transform="translate(-859.975 -540.674)" fill="#124691"/>
      <path id="Trazado_617" data-name="Trazado 617" d="M905.608,540.905v-.068c.286-.041,1.6-.109,1.869-.109a.6.6,0,0,1,.407.244c.5.624,1.734,2.32,2.819,3.827.663.963,1.221,1.709,1.6,2.4a18.212,18.212,0,0,1-.09-2.253v-3.786c0-.312.106-.366.332-.38.422-.041.9-.054,1.221-.054-.03.583-.045,1.371-.045,2.5v5.97a7.107,7.107,0,0,1-1.447.217.4.4,0,0,1-.377-.176c-.769-.991-1.553-2.049-2.729-3.7a31.4,31.4,0,0,1-1.854-2.931c.075,1.371.075,2.063.075,2.755v3.555c0,.285-.09.326-.347.366a7.574,7.574,0,0,1-1.206.054c.03-.542.045-1.329.045-2.469v-5.618Z" transform="translate(-876.781 -540.566)" fill="#124691"/>
      <path id="Trazado_618" data-name="Trazado 618" d="M941.4,542.561c0-.909-.015-1.466-.045-1.723.256-.041,1.3-.109,1.628-.109.256,0,.3.122.3.732v6.093c0,.95.03,1.4.045,1.669a11.833,11.833,0,0,1-1.613.108c-.226,0-.317-.041-.317-.271Z" transform="translate(-902.731 -540.566)" fill="#124691"/>
      <path id="Trazado_619" data-name="Trazado 619" d="M954.546,542.777c0-.638,0-1.14-.045-1.71a9.363,9.363,0,0,1,1.7-.19h3.663a1.613,1.613,0,0,1-.452,1.045A5.939,5.939,0,0,1,958,542h-1.568v2.416h3.286c-.135.95-.467,1.126-.995,1.126h-2.292v2.673a7.83,7.83,0,0,0,1.4.1c.618,0,1.719-.014,2.442-.068l.03.027a1.486,1.486,0,0,1-.8,1.1,17.126,17.126,0,0,1-2.05.068,19.173,19.173,0,0,1-2.683-.136l-.226-.271Z" transform="translate(-912.271 -540.674)" fill="#124691"/>
      <path id="Trazado_620" data-name="Trazado 620" d="M980.271,548.867c0,.258-.106.312-.347.339-.392.041-1.251.054-1.553.054.03-.542.045-1.343.045-2.483v-4.546c0-.665,0-.991-.03-1.37a20.779,20.779,0,0,1,2.593-.231c2.4,0,3.588.733,3.588,2.442a2.507,2.507,0,0,1-1.794,2.157,8.493,8.493,0,0,1,1.327,1.751,12.078,12.078,0,0,0,1.568,2.117v.054a3.681,3.681,0,0,1-1.206.135,1.565,1.565,0,0,1-1.357-.611,16.117,16.117,0,0,1-1.312-2.076c-.467-.773-.754-.882-1.251-.882h-.271Zm0-4.125a4.712,4.712,0,0,0,1.447-.1,1.46,1.46,0,0,0,.92-1.425,1.529,1.529,0,0,0-1.719-1.587,4.857,4.857,0,0,0-.648.041Z" transform="translate(-929.598 -540.494)" fill="#124691"/>
      <path id="Trazado_621" data-name="Trazado 621" d="M1007.07,542.561c0-.909-.015-1.466-.045-1.723.256-.041,1.3-.109,1.628-.109.256,0,.3.122.3.732v6.093c0,.95.03,1.4.045,1.669a11.836,11.836,0,0,1-1.613.108c-.226,0-.317-.041-.317-.271Z" transform="translate(-950.397 -540.566)" fill="#124691"/>
      <path id="Trazado_622" data-name="Trazado 622" d="M1019.434,546.917c-.362.787-.784,1.791-1,2.225-.06.122-.181.19-.407.19a6.109,6.109,0,0,1-1.327-.176V549.1c.784-1.655,3.136-6.69,3.708-7.924l-.136-.285a12.006,12.006,0,0,1,1.583-.163.406.406,0,0,1,.362.244c.693,1.492,1.839,4.152,2.352,5.333.633,1.4.995,2.239,1.3,2.809l-.015.055a8.758,8.758,0,0,1-1.673.163c-.241,0-.362-.068-.513-.434-.286-.692-.5-1.208-.829-1.981Zm3.03-1.127c-.678-1.683-1.13-2.7-1.311-3.121-.362.882-.8,1.954-1.3,3.121Z" transform="translate(-957.423 -540.566)" fill="#124691"/>
      <path id="Trazado_623" data-name="Trazado 623" d="M1062.661,545.885a1.119,1.119,0,0,0-.121-.624c-.814-1.248-2.156-3.08-3.045-4.247v-.041a7.751,7.751,0,0,1,1.643-.244c.256,0,.377.068.754.638.528.76,1.281,1.927,1.93,2.917.664-.9,2.111-3.08,2.382-3.555a5.147,5.147,0,0,1,1.281.136c.226.081.2.258,0,.556-.377.556-2.608,3.514-2.774,3.759a.991.991,0,0,0-.166.556v1.859c0,.923.03,1.33.045,1.629a8.888,8.888,0,0,1-1.658.108c-.226,0-.271-.041-.271-.244Z" transform="translate(-988.483 -540.566)" fill="#124691"/>
      <path id="Trazado_624" data-name="Trazado 624" d="M1104.492,540.786c-.015.339-.256.9-.769.855a4.472,4.472,0,0,0-1.492-.326c-.784,0-1.357.339-1.357.936,0,.638.5.964,1.9,1.683,1.357.692,2.11,1.208,2.11,2.5,0,1.682-1.613,2.592-3.392,2.592a4.131,4.131,0,0,1-2.2-.529c-.256-.149-.362-.285-.362-.461a1.573,1.573,0,0,1,.362-.868,4.711,4.711,0,0,0,2.186.638c.9,0,1.538-.353,1.538-1.045,0-.6-.346-.936-1.869-1.683-1.764-.855-2.05-1.723-2.05-2.537,0-.923.708-2.4,3.211-2.4A3.83,3.83,0,0,1,1104.492,540.786Z" transform="translate(-1017.107 -540.135)" fill="#124691"/>
      <path id="Trazado_625" data-name="Trazado 625" d="M1124.164,542.561c0-.909-.015-1.466-.045-1.723.256-.041,1.3-.109,1.628-.109.256,0,.3.122.3.732v6.093c0,.95.03,1.4.045,1.669a11.836,11.836,0,0,1-1.613.108c-.226,0-.316-.041-.316-.271Z" transform="translate(-1035.392 -540.566)" fill="#124691"/>
      <path id="Trazado_626" data-name="Trazado 626" d="M1140.3,540.786c-.015.339-.256.9-.769.855a4.475,4.475,0,0,0-1.492-.326c-.784,0-1.357.339-1.357.936,0,.638.5.964,1.9,1.683,1.357.692,2.111,1.208,2.111,2.5,0,1.682-1.613,2.592-3.392,2.592a4.133,4.133,0,0,1-2.2-.529c-.256-.149-.361-.285-.361-.461a1.577,1.577,0,0,1,.361-.868,4.713,4.713,0,0,0,2.186.638c.9,0,1.538-.353,1.538-1.045,0-.6-.347-.936-1.869-1.683-1.764-.855-2.051-1.723-2.051-2.537,0-.923.709-2.4,3.211-2.4A3.83,3.83,0,0,1,1140.3,540.786Z" transform="translate(-1043.097 -540.135)" fill="#124691"/>
      <path id="Trazado_627" data-name="Trazado 627" d="M1159.492,541.824h-2.713c-.241,0-.362-.095-.256-.393a2.215,2.215,0,0,1,.5-.8,13.459,13.459,0,0,0,2.171.068h5.367a1.157,1.157,0,0,1-.769,1.126h-2.412V547.5c0,.936.03,1.384.045,1.656a10.873,10.873,0,0,1-1.613.108c-.211,0-.317-.041-.317-.244Z" transform="translate(-1058.885 -540.494)" fill="#124691"/>
      <path id="Trazado_628" data-name="Trazado 628" d="M1188.019,542.777c0-.638,0-1.14-.045-1.71a9.359,9.359,0,0,1,1.7-.19h3.663a1.609,1.609,0,0,1-.452,1.045,5.935,5.935,0,0,1-1.417.081H1189.9v2.416h3.286c-.136.95-.467,1.126-.995,1.126H1189.9v2.673a7.83,7.83,0,0,0,1.4.1c.618,0,1.719-.014,2.442-.068l.03.027a1.485,1.485,0,0,1-.8,1.1,17.121,17.121,0,0,1-2.05.068,19.181,19.181,0,0,1-2.683-.136l-.226-.271Z" transform="translate(-1081.743 -540.674)" fill="#124691"/>
      <path id="Trazado_629" data-name="Trazado 629" d="M1219.018,540.919a7.068,7.068,0,0,1,1.6-.19c.151,0,.241.081.287.407l.814,4.994c.227,1.425.392,2.429.528,3.08a10.717,10.717,0,0,1-1.507.122.375.375,0,0,1-.422-.325c-.091-.706-.181-1.438-.347-2.863l-.437-3.419c-.422,1.181-1.3,3.447-2.276,5.984a.6.6,0,0,1-.543.448,6.794,6.794,0,0,1-.935.095c-.362-1.058-1.688-4.641-2.367-6.5-.211,1.669-.663,4.79-.889,6.364a.238.238,0,0,1-.271.217,4.427,4.427,0,0,1-1.342-.122c.271-1.425.874-4.939,1.462-8.033l-.045-.258a7.4,7.4,0,0,1,1.643-.19c.226.054.346.244.618.923l2.035,5.061c.754-1.764,1.779-4.206,2.412-5.591Z" transform="translate(-1098.39 -540.566)" fill="#124691"/>
      <path id="Trazado_630" data-name="Trazado 630" d="M1256.7,546.917c-.362.787-.784,1.791-1,2.225-.06.122-.181.19-.407.19a6.115,6.115,0,0,1-1.327-.176V549.1c.784-1.655,3.136-6.69,3.709-7.924l-.136-.285a12.015,12.015,0,0,1,1.583-.163.407.407,0,0,1,.362.244c.693,1.492,1.839,4.152,2.351,5.333.634,1.4,1,2.239,1.3,2.809l-.015.055a8.757,8.757,0,0,1-1.673.163c-.241,0-.362-.068-.513-.434-.287-.692-.5-1.208-.829-1.981Zm3.03-1.127c-.679-1.683-1.131-2.7-1.312-3.121-.362.882-.8,1.954-1.3,3.121Z" transform="translate(-1129.648 -540.566)" fill="#124691"/>
      <path id="Trazado_631" data-name="Trazado 631" d="M1293.908,540.786c-.015.339-.256.9-.769.855a4.471,4.471,0,0,0-1.492-.326c-.783,0-1.356.339-1.356.936,0,.638.5.964,1.9,1.683,1.357.692,2.11,1.208,2.11,2.5,0,1.682-1.613,2.592-3.392,2.592a4.13,4.13,0,0,1-2.2-.529c-.256-.149-.362-.285-.362-.461a1.571,1.571,0,0,1,.362-.868,4.71,4.71,0,0,0,2.186.638c.9,0,1.538-.353,1.538-1.045,0-.6-.347-.936-1.869-1.683-1.764-.855-2.05-1.723-2.05-2.537,0-.923.708-2.4,3.211-2.4A3.831,3.831,0,0,1,1293.908,540.786Z" transform="translate(-1154.599 -540.135)" fill="#124691"/>
      <path id="Trazado_632" data-name="Trazado 632" d="M1312.715,565.073a3.164,3.164,0,0,1-1.432,2.334,2.536,2.536,0,0,1-1.432.3,3.83,3.83,0,0,0,1.07-2.551,2.076,2.076,0,0,0-.09-.611,3.7,3.7,0,0,1,1.3-.353C1312.564,564.191,1312.715,564.68,1312.715,565.073Z" transform="translate(-1170.209 -557.596)" fill="#124691"/>
      <path id="Trazado_633" data-name="Trazado 633" d="M1337.139,540.786c-.015.339-.256.9-.769.855a4.474,4.474,0,0,0-1.492-.326c-.784,0-1.357.339-1.357.936,0,.638.5.964,1.9,1.683,1.357.692,2.11,1.208,2.11,2.5,0,1.682-1.613,2.592-3.392,2.592a4.132,4.132,0,0,1-2.2-.529c-.256-.149-.362-.285-.362-.461a1.575,1.575,0,0,1,.362-.868,4.712,4.712,0,0,0,2.186.638c.9,0,1.537-.353,1.537-1.045,0-.6-.347-.936-1.869-1.683-1.764-.855-2.051-1.723-2.051-2.537,0-.923.709-2.4,3.211-2.4A3.83,3.83,0,0,1,1337.139,540.786Z" transform="translate(-1185.979 -540.135)" fill="#124691"/>
      <path id="Trazado_634" data-name="Trazado 634" d="M1358.176,566.06a.994.994,0,0,1-1.1,1.018.961.961,0,0,1-1.025-.963,1.012,1.012,0,0,1,1.116-1.031A.971.971,0,0,1,1358.176,566.06Z" transform="translate(-1203.744 -558.244)" fill="#124691"/>
      <path id="Trazado_635" data-name="Trazado 635" d="M1367.3,546.917c-.362.787-.784,1.791-1,2.225-.06.122-.181.19-.407.19a6.111,6.111,0,0,1-1.327-.176V549.1c.784-1.655,3.136-6.69,3.708-7.924l-.136-.285a12,12,0,0,1,1.583-.163.407.407,0,0,1,.362.244c.693,1.492,1.839,4.152,2.351,5.333.633,1.4,1,2.239,1.3,2.809l-.015.055a8.761,8.761,0,0,1-1.674.163c-.241,0-.361-.068-.512-.434-.287-.692-.5-1.208-.829-1.981Zm3.03-1.127c-.678-1.683-1.131-2.7-1.312-3.121-.362.882-.8,1.954-1.3,3.121Z" transform="translate(-1209.932 -540.566)" fill="#124691"/>
      <path id="Trazado_636" data-name="Trazado 636" d="M1402.4,566.06a.994.994,0,0,1-1.1,1.018.96.96,0,0,1-1.025-.963,1.012,1.012,0,0,1,1.115-1.031A.971.971,0,0,1,1402.4,566.06Z" transform="translate(-1235.842 -558.244)" fill="#124691"/>
    </g>
    <path id="Trazado_637" data-name="Trazado 637" d="M798.84,243.567v77.96H966.277v-77.96Zm9.022,71.5s3.084-63.463,74.7-63.463,74.7,63.29,74.7,63.29Z" transform="translate(0 -176.798)" fill="#124691" fill-rule="evenodd"/>
  </g>
</svg>
