<?xml version="1.0" standalone="yes"?>
<svg xmlns="http://www.w3.org/2000/svg" width="225" height="225">
<path style="fill:#ffc701; stroke:none;" d="M0 0L0 225L225 225L225 0L0 0z"/>
<path style="fill:#ffd666; stroke:none;" d="M147.667 76.3333L148.333 76.6667L147.667 76.3333z"/>
<path style="fill:#ffe194; stroke:none;" d="M149 76L149 77L152 77L149 76z"/>
<path style="fill:#ffd666; stroke:none;" d="M152 76L153 77L152 76z"/>
<path style="fill:#ffe194; stroke:none;" d="M145 77L146 78L145 77z"/>
<path style="fill:#fffffe; stroke:none;" d="M146.015 77.7423C133.699 82.5782 141.448 102.071 153.995 97.2569C166.971 92.2782 158.686 72.7675 146.015 77.7423z"/>
<path style="fill:#ffeab4; stroke:none;" d="M154 77L155 78L154 77z"/>
<path style="fill:#ffd666; stroke:none;" d="M64 78L65 79L64 78z"/>
<path style="fill:#fffffe; stroke:none;" d="M65.6034 79.0278C63.082 81.0248 64.0002 86.197 64 89C63.9994 98.6238 63.3139 108.485 64.9205 118C71.2677 155.59 120.37 170.422 146.907 142.96C156.804 132.717 169.481 102.544 143.147 110.318C138.75 111.616 138.241 120.413 135.891 124C129.175 134.255 116.972 139.407 105 136.236C101.76 135.378 98.7453 133.858 96.0039 131.945C82.7921 122.726 84 108.231 84 94C84 90.0961 85.1587 83.899 83.3966 80.3179C81.6232 76.714 68.4704 76.757 65.6034 79.0278z"/>
<path style="fill:#ffd666; stroke:none;" d="M83 78L84 79L83 78M143 78L144 79L143 78z"/>
<path style="fill:#ffe194; stroke:none;" d="M156 78L157 79L156 78z"/>
<path style="fill:#ffd666; stroke:none;" d="M142 79L143 80L142 79z"/>
<path style="fill:#ffeab4; stroke:none;" d="M157 79L158 80L157 79z"/>
<path style="fill:#ffd666; stroke:none;" d="M84 80L84 113L85 113L84 80M141 80L142 81L141 80z"/>
<path style="fill:#ffeab4; stroke:none;" d="M158 80L159 81L158 80z"/>
<path style="fill:#ffd666; stroke:none;" d="M159 81L160 82L159 81z"/>
<path style="fill:#ffeab4; stroke:none;" d="M140 82L141 83L140 82z"/>
<path style="fill:#ffd666; stroke:none;" d="M160 83L161 84L160 83M139 84L140 85L139 84z"/>
<path style="fill:#ffeab4; stroke:none;" d="M160 84L161 85L160 84M139.333 85.6667L139.667 86.3333L139.333 85.6667M139.333 88.6667L139.667 89.3333L139.333 88.6667z"/>
<path style="fill:#ffd666; stroke:none;" d="M139 90L140 91L139 90z"/>
<path style="fill:#ffeab4; stroke:none;" d="M160 90L161 91L160 90z"/>
<path style="fill:#ffd666; stroke:none;" d="M160 91L161 92L160 91z"/>
<path style="fill:#ffe194; stroke:none;" d="M140 92L141 93L140 92M159 93L160 94L159 93z"/>
<path style="fill:#ffd666; stroke:none;" d="M141 94L142 95L141 94z"/>
<path style="fill:#ffeab4; stroke:none;" d="M158 94L159 95L158 94z"/>
<path style="fill:#ffd666; stroke:none;" d="M142 95L143 96L142 95z"/>
<path style="fill:#ffeab4; stroke:none;" d="M157 95L158 96L157 95z"/>
<path style="fill:#ffe194; stroke:none;" d="M156 96L157 97L156 96z"/>
<path style="fill:#ffd666; stroke:none;" d="M145 97L146 98L145 97z"/>
<path style="fill:#ffeab4; stroke:none;" d="M146 97L147 98L146 97M154 97L155 98L154 97z"/>
<path style="fill:#ffd666; stroke:none;" d="M148 98L148 99L152 99L148 98M140 110L141 111L140 110z"/>
<path style="fill:#ffeab4; stroke:none;" d="M159 110L160 111L159 110z"/>
<path style="fill:#ffd666; stroke:none;" d="M160.333 111.667L160.667 112.333L160.333 111.667z"/>
<path style="fill:#ffe194; stroke:none;" d="M84 113L85 114L84 113z"/>
<path style="fill:#ffd666; stroke:none;" d="M139.333 113.667L139.667 114.333L139.333 113.667z"/>
<path style="fill:#ffeab4; stroke:none;" d="M84.3333 114.667L84.6667 115.333L84.3333 114.667M64.3333 115.667L64.6667 116.333L64.3333 115.667M139 115L140 116L139 115z"/>
<path style="fill:#ffe194; stroke:none;" d="M64 117L65 118L64 117z"/>
<path style="fill:#ffd666; stroke:none;" d="M85 117L86 118L85 117z"/>
<path style="fill:#ffeab4; stroke:none;" d="M159 117L160 118L159 117z"/>
<path style="fill:#ffd666; stroke:none;" d="M64 118L65 119L64 118z"/>
<path style="fill:#ffeab4; stroke:none;" d="M85 118L86 119L85 118z"/>
<path style="fill:#ffd666; stroke:none;" d="M138 118L139 119L138 118z"/>
<path style="fill:#ffe194; stroke:none;" d="M159 118L160 119L159 118z"/>
<path style="fill:#ffeab4; stroke:none;" d="M138 119L139 120L138 119z"/>
<path style="fill:#ffd666; stroke:none;" d="M159 119L160 120L159 119M86 120L87 121L86 120z"/>
<path style="fill:#ffeab4; stroke:none;" d="M65 121L66 122L65 121M137 121L138 122L137 121z"/>
<path style="fill:#ffd666; stroke:none;" d="M65 122L66 123L65 122M87 122L88 123L87 122z"/>
<path style="fill:#ffeab4; stroke:none;" d="M158 122L159 123L158 122M136 123L137 124L136 123z"/>
<path style="fill:#ffd666; stroke:none;" d="M158 123L159 124L158 123z"/>
<path style="fill:#ffe194; stroke:none;" d="M88 124L89 125L88 124z"/>
<path style="fill:#ffd666; stroke:none;" d="M135 124L136 125L135 124z"/>
<path style="fill:#ffe194; stroke:none;" d="M66 125L67 126L66 125z"/>
<path style="fill:#ffd666; stroke:none;" d="M89 125L90 126L89 125z"/>
<path style="fill:#ffeab4; stroke:none;" d="M157 125L158 126L157 125M134 126L135 127L134 126z"/>
<path style="fill:#ffd666; stroke:none;" d="M157 126L158 127L157 126z"/>
<path style="fill:#ffeab4; stroke:none;" d="M67 127L68 128L67 127M90 127L91 128L90 127M133 127L134 128L133 127z"/>
<path style="fill:#ffd666; stroke:none;" d="M67 128L68 129L67 128z"/>
<path style="fill:#ffeab4; stroke:none;" d="M91 128L92 129L91 128z"/>
<path style="fill:#ffe194; stroke:none;" d="M132 128L133 129L132 128M156 128L157 129L156 128z"/>
<path style="fill:#ffeab4; stroke:none;" d="M92 129L93 130L92 129z"/>
<path style="fill:#ffe194; stroke:none;" d="M131 129L132 130L131 129z"/>
<path style="fill:#ffd666; stroke:none;" d="M68 130L69 131L68 130z"/>
<path style="fill:#ffeab4; stroke:none;" d="M93 130L94 131L93 130M130 130L131 131L130 130M155 130L156 131L155 130M129 131L130 132L129 131z"/>
<path style="fill:#ffd666; stroke:none;" d="M69 132L70 133L69 132z"/>
<path style="fill:#ffe194; stroke:none;" d="M96 132L97 133L96 132z"/>
<path style="fill:#ffd666; stroke:none;" d="M127 132L128 133L127 132z"/>
<path style="fill:#ffe194; stroke:none;" d="M154 132L155 133L154 132z"/>
<path style="fill:#ffeab4; stroke:none;" d="M70 133L71 134L70 133z"/>
<path style="fill:#ffd666; stroke:none;" d="M98 133L99 134L98 133z"/>
<path style="fill:#ffeab4; stroke:none;" d="M126 133L127 134L126 133z"/>
<path style="fill:#ffd666; stroke:none;" d="M70 134L71 135L70 134z"/>
<path style="fill:#ffeab4; stroke:none;" d="M99 134L100 135L99 134z"/>
<path style="fill:#ffd666; stroke:none;" d="M100 134L101 135L100 134z"/>
<path style="fill:#ffeab4; stroke:none;" d="M124 134L125 135L124 134z"/>
<path style="fill:#ffd666; stroke:none;" d="M153 134L154 135L153 134z"/>
<path style="fill:#ffe194; stroke:none;" d="M71 135L72 136L71 135M102 135L103 136L102 135z"/>
<path style="fill:#ffd666; stroke:none;" d="M121 135L122 136L121 135z"/>
<path style="fill:#ffeab4; stroke:none;" d="M122 135L123 136L122 135M152 135L153 136L152 135M105 136L106 137L105 136z"/>
<path style="fill:#ffd666; stroke:none;" d="M106 136L107 137L106 136M117 136L118 137L117 136z"/>
<path style="fill:#ffe194; stroke:none;" d="M118 136L119 137L118 136z"/>
<path style="fill:#ffeab4; stroke:none;" d="M119 136L120 137L119 136z"/>
<path style="fill:#ffd666; stroke:none;" d="M151 137L152 138L151 137z"/>
<path style="fill:#ffe194; stroke:none;" d="M73 138L74 139L73 138z"/>
<path style="fill:#ffeab4; stroke:none;" d="M150 138L151 139L150 138M74 139L75 140L74 139z"/>
<path style="fill:#ffd666; stroke:none;" d="M147 142L148 143L147 142M146 143L147 144L146 143M145 144L146 145L145 144z"/>
<path style="fill:#ffeab4; stroke:none;" d="M81 146L82 147L81 146z"/>
<path style="fill:#ffe194; stroke:none;" d="M82 147L83 148L82 147z"/>
<path style="fill:#ffeab4; stroke:none;" d="M141 147L142 148L141 147z"/>
<path style="fill:#ffd666; stroke:none;" d="M83 148L84 149L83 148M140 148L141 149L140 148z"/>
<path style="fill:#ffeab4; stroke:none;" d="M85 149L86 150L85 149M138 149L139 150L138 149z"/>
<path style="fill:#ffd666; stroke:none;" d="M86 150L87 151L86 150M137 150L138 151L137 150M88 151L89 152L88 151z"/>
<path style="fill:#ffe194; stroke:none;" d="M135 151L136 152L135 151M90 152L91 153L90 152z"/>
<path style="fill:#ffeab4; stroke:none;" d="M133 152L134 153L133 152z"/>
<path style="fill:#ffd666; stroke:none;" d="M92 153L93 154L92 153z"/>
<path style="fill:#ffe194; stroke:none;" d="M131 153L132 154L131 153z"/>
<path style="fill:#ffd666; stroke:none;" d="M94 154L95 155L94 154z"/>
<path style="fill:#ffeab4; stroke:none;" d="M95 154L96 155L95 154M128 154L129 155L128 154z"/>
<path style="fill:#ffd666; stroke:none;" d="M129 154L130 155L129 154M97 155L98 156L97 155z"/>
<path style="fill:#ffeab4; stroke:none;" d="M98 155L99 156L98 155M125 155L126 156L125 155z"/>
<path style="fill:#ffd666; stroke:none;" d="M126 155L127 156L126 155M101 156L102 157L101 156z"/>
<path style="fill:#ffeab4; stroke:none;" d="M102.667 156.333L103.333 156.667L102.667 156.333M120.667 156.333L121.333 156.667L120.667 156.333z"/>
<path style="fill:#ffd666; stroke:none;" d="M122 156L123 157L122 156M107.667 157.333L108.333 157.667L107.667 157.333z"/>
<path style="fill:#ffe194; stroke:none;" d="M109 157L109 158L115 158L109 157z"/>
<path style="fill:#ffd666; stroke:none;" d="M115 157L115 158L118 158L115 157z"/>
</svg>
